<svg id="Capa_1" data-name="Capa 1" xmlns="http://www.w3.org/2000/svg" viewBox="0 0 20 20"><defs><style>.cls-1{fill:#e6007e;fill-rule:evenodd;}.cls-2{fill:#fff;}</style></defs><title>icon-ig</title><path class="cls-1" d="M4.4,0H15.58A4.41,4.41,0,0,1,20,4.42V15.59A4.41,4.41,0,0,1,15.58,20H4.4A4.42,4.42,0,0,1,0,15.59V4.42A4.41,4.41,0,0,1,4.4,0Z"/><path class="cls-2" d="M12.92,16.81H7.06a3.87,3.87,0,0,1-3.87-3.87V7.08A3.88,3.88,0,0,1,7.06,3.21h5.86a3.88,3.88,0,0,1,3.87,3.87v5.86A3.87,3.87,0,0,1,12.92,16.81ZM7.06,4.38a2.71,2.71,0,0,0-2.71,2.7v5.86a2.72,2.72,0,0,0,2.71,2.71h5.86a2.71,2.71,0,0,0,2.7-2.71V7.08a2.7,2.7,0,0,0-2.7-2.7Z"/><path class="cls-2" d="M10,13.49A3.48,3.48,0,1,1,13.47,10,3.48,3.48,0,0,1,10,13.49ZM10,7.7A2.32,2.32,0,1,0,12.3,10,2.32,2.32,0,0,0,10,7.7Z"/><path class="cls-2" d="M14.45,6.33a.84.84,0,0,1-.83.84.85.85,0,0,1-.84-.84.84.84,0,0,1,.84-.83A.83.83,0,0,1,14.45,6.33Z"/></svg>