<svg id="Capa_1" data-name="Capa 1" xmlns="http://www.w3.org/2000/svg" viewBox="0 0 20 20"><defs><style>.cls-1{fill:#009fe3;fill-rule:evenodd;}.cls-2{fill:#fff;}</style></defs><title>icon-be</title><path class="cls-1" d="M4.4,0H15.58A4.41,4.41,0,0,1,20,4.42V15.59A4.41,4.41,0,0,1,15.58,20H4.4A4.42,4.42,0,0,1,0,15.59V4.42A4.41,4.41,0,0,1,4.4,0Z"/><path class="cls-2" d="M8.63,9.13a1.73,1.73,0,0,0,1.52-1.9A2.56,2.56,0,0,0,7.32,4.57H2.13v10H7.32s3.18.1,3.18-3c0,0,.14-2.48-1.87-2.48ZM7,6.35h.37s.71,0,.71,1-.41,1.19-.89,1.19H4.42V6.35Zm.23,6.44H4.42V10.12h2.9s1.06,0,1.06,1.37c0,1.17-.79,1.29-1.2,1.3Zm7.55-5.68c-3.84,0-3.84,3.84-3.84,3.84a3.55,3.55,0,0,0,3.84,3.82s3.42.2,3.42-2.65H16.39s.06,1.07-1.6,1.07A1.62,1.62,0,0,1,13,11.45h5.18s.56-4.34-3.48-4.34Zm-1.72,3a1.79,1.79,0,0,1,1.76-1.54,1.49,1.49,0,0,1,1.52,1.54ZM16.7,6.39H12.58V5.16H16.7V6.39Z"/></svg>