<svg id="Capa_1" data-name="Capa 1" xmlns="http://www.w3.org/2000/svg" viewBox="0 0 20 20"><defs><style>.cls-1,.cls-3{fill:#e6007e;}.cls-1{fill-rule:evenodd;}.cls-2{fill:#fff;}</style></defs><title>icon-git</title><path class="cls-1" d="M4.41,0H15.59A4.41,4.41,0,0,1,20,4.41V15.58A4.42,4.42,0,0,1,15.59,20H4.41A4.42,4.42,0,0,1,0,15.58V4.41A4.41,4.41,0,0,1,4.41,0Z"/><rect class="cls-2" x="2.22" y="2.96" width="15.56" height="15.56" rx="5.16"/><path class="cls-3" d="M.05,9.54c.05-.35.09-.7.15-1a9.27,9.27,0,0,1,1.22-3.3,9.94,9.94,0,0,1,9-4.91,9.78,9.78,0,0,1,5.62,2,9.84,9.84,0,0,1,3.33,4.53,10,10,0,0,1,.52,4.58,9.36,9.36,0,0,1-1.32,3.92,9.92,9.92,0,0,1-4.2,3.89,11.72,11.72,0,0,1-1.11.45c-.5.18-.8,0-.8-.54,0-.94,0-1.88,0-2.83a2.21,2.21,0,0,0-.64-1.63,2.15,2.15,0,0,1,.55-.11,5.37,5.37,0,0,0,2.32-.87,3.45,3.45,0,0,0,1.38-1.95,6,6,0,0,0,.16-3,3.4,3.4,0,0,0-.75-1.49.35.35,0,0,1-.09-.39,3.43,3.43,0,0,0-.14-2.36c0-.09-.09-.09-.17-.1a2.14,2.14,0,0,0-1,.19,7.63,7.63,0,0,0-1.5.78.37.37,0,0,1-.29,0A9.08,9.08,0,0,0,9.2,5.14a7.85,7.85,0,0,0-1.45.25.48.48,0,0,1-.42-.07,6.39,6.39,0,0,0-2-.9l-.05,0c-.41-.07-.51,0-.62.39A3.36,3.36,0,0,0,4.66,7c0,.11,0,.16-.07.22A3.4,3.4,0,0,0,3.74,9a5.49,5.49,0,0,0,.81,4A3.61,3.61,0,0,0,6.3,14.22a6.64,6.64,0,0,0,1.58.39l.3,0c0,.14-.16.21-.23.31a2.13,2.13,0,0,0-.34.86.27.27,0,0,1-.2.25,2.46,2.46,0,0,1-1.73.06,2,2,0,0,1-.95-.86,2.22,2.22,0,0,0-1.27-1.06,1,1,0,0,0-.63,0c-.12,0-.17.1-.09.23a.89.89,0,0,0,.3.31A2.63,2.63,0,0,1,4.11,16a2.41,2.41,0,0,0,.52.85,2.28,2.28,0,0,0,1.5.56,4.37,4.37,0,0,0,1.3-.05c.11,0,.12,0,.12.11,0,.58,0,1.15,0,1.73a.51.51,0,0,1-.73.47,8.63,8.63,0,0,1-1.47-.62,10.1,10.1,0,0,1-4.56-5,9.19,9.19,0,0,1-.71-2.92.65.65,0,0,0,0-.2Z"/></svg>