<svg id="Capa_1" data-name="Capa 1" xmlns="http://www.w3.org/2000/svg" viewBox="0 0 30 30"><defs><style>.cls-1{fill:#fff;}.cls-2{fill:#009fe3;}.cls-3{fill:#e6007e;}</style></defs><title>logo</title><path class="cls-1" d="M6.22,15.9H5.87l-.37,0H5.24a1.66,1.66,0,0,1-1.58-1.41,2,2,0,0,1,0-.26l0-.1V13.7a.22.22,0,0,1,0-.08h0a4.53,4.53,0,0,1,.31-1.31c.31-.81.56-1.58.77-2.33a11,11,0,0,0,.42-2.78A11.22,11.22,0,0,0,5,5.24a.4.4,0,0,1,.21-.45.53.53,0,0,1,.23-.09h.08A3.8,3.8,0,0,1,6,4.63h.11L5.57,4.4A5.21,5.21,0,0,1,4.87,4a.67.67,0,0,1-.3-.32L4.06,2.4a3.19,3.19,0,0,1-.18-.9A.67.67,0,0,1,4.39.76a.28.28,0,0,1,.13,0H4.8L5,.79l.08,0a.31.31,0,0,1,.13,0h.28l.15,0L6,.86a8.5,8.5,0,0,1,2,.92,12.14,12.14,0,0,1,2.16,1.61A6.7,6.7,0,0,1,11,4.44a.27.27,0,0,0,.09.07A5.51,5.51,0,0,0,12,4.9l.58.23.65.25a1.21,1.21,0,0,1,.28.15.38.38,0,0,1,.17.37.35.35,0,0,1-.27.29l-.28.06h-.29l-.35,0-.68.07c0,.06.07.31.07.31a.32.32,0,0,1-.09.29.31.31,0,0,1-.22.09h-.07L11.05,7h0a.31.31,0,0,1-.22.09h-.07L10.4,7,10,6.86l-.92-.2a.38.38,0,0,1-.32-.34c0-.08,0-.15-.05-.23l0-.09a.44.44,0,0,1,.11-.42l-.59,0L8,5.64A11.25,11.25,0,0,1,8.09,7a.28.28,0,0,1,.15,0H8.3l.42.08h0A.31.31,0,0,1,8.94,7H9l.41.08.6.12,1.61.32a.38.38,0,0,1,.33.39,9,9,0,0,1-.72,3.78c-.05.1-.09.2-.13.3-.13.32-.26.64-.42.95a5,5,0,0,1-1.5,1.75,6.16,6.16,0,0,1-1.76,1,3.56,3.56,0,0,1-1.2.22ZM7.84,9.69A19.86,19.86,0,0,1,7,12.32a1,1,0,0,0-.07.53A.39.39,0,0,0,7,13a1.78,1.78,0,0,0,.52-.42,1.56,1.56,0,0,0,.24-.35A12.06,12.06,0,0,0,8.54,10c0-.07,0-.14.05-.2L8,9.75A.35.35,0,0,1,7.84,9.69Z"/><path class="cls-1" d="M20.6,15.88l-.39,0h-.7a2,2,0,0,1-1.15-.42A1.74,1.74,0,0,1,17.69,14,3.18,3.18,0,0,1,18,12.78a8.73,8.73,0,0,0,.63-1.94,5.85,5.85,0,0,0-.25-3.13l-.05-.15a.45.45,0,0,1,0-.36A.38.38,0,0,1,18.57,7a1.68,1.68,0,0,1,.4-.11l.3,0-.07,0-.81-.29c-.17-.07-.33-.15-.48-.23l-.12-.06a1,1,0,0,1-.34-.31c-.19-.28-.39-.55-.59-.82l-.19-.28a.41.41,0,0,1-.09-.2.3.3,0,0,1,.11-.29.29.29,0,0,1,.2-.07H17l.35.11,0,0a.31.31,0,0,1,.21-.07h.09l.75.23.91.29a.61.61,0,0,1,.27.18l.65.9a.76.76,0,0,0,.2.13l0,0L20.44,6a.31.31,0,0,1,0-.38.32.32,0,0,1,.27-.14l.09,0,.35.1a.33.33,0,0,1,.25-.12l.09,0,.83.25.88.28a.49.49,0,0,1,.23.14,2.52,2.52,0,0,1,.21.25.78.78,0,0,0,.25.2,9.25,9.25,0,0,0,1,.41L25,7,26,7.4a1.22,1.22,0,0,1,.26.14.39.39,0,0,1,.19.38.37.37,0,0,1-.29.29.8.8,0,0,1-.3.06l-.3,0-.36,0-.46.06a6.47,6.47,0,0,1,.28,1,6.79,6.79,0,0,1,0,2.1,6.65,6.65,0,0,1-1,2.6,3.65,3.65,0,0,1-1.95,1.49,4.71,4.71,0,0,1-1.57.27Zm.68-8.09a6,6,0,0,1,.37,1.44,6.19,6.19,0,0,1,0,1.49A8.8,8.8,0,0,1,21,13.14a.7.7,0,0,0-.08.23.28.28,0,0,0,.13.29l.07,0,.1,0a1,1,0,0,0,.47-.39,2.64,2.64,0,0,0,.43-.94c.11-.44.19-.77.25-1.09a4.19,4.19,0,0,0,0-1.09,5.92,5.92,0,0,0-.5-1.94.47.47,0,0,1,0-.35.61.61,0,0,1,.07-.1l-.25,0A3,3,0,0,0,21.28,7.79Z"/><path class="cls-1" d="M17,26.21a.32.32,0,0,1-.24-.11l-.35.09-.1,0A.34.34,0,0,1,16,26a7.42,7.42,0,0,1-.48-2,6.86,6.86,0,0,1,.24-2.69l0-.07a.68.68,0,0,0-.19-.08l-.19-.07L15.13,21a1.1,1.1,0,0,1-.26-.14.57.57,0,0,1-.23-.48.55.55,0,0,1,.29-.43,1.38,1.38,0,0,1,.4-.15l.62-.1.34,0,.13,0a23.43,23.43,0,0,1,1.46-2.49l.23-.35.22-.32a.37.37,0,0,1,.32-.19l.11,0,.33.09a.36.36,0,0,1,.25-.11l.11,0a3.87,3.87,0,0,0,1,.13,4.08,4.08,0,0,0,1.32-.23l.06,0H22a.32.32,0,0,1,.2.14.29.29,0,0,1,0,.24l-.12.51a13.4,13.4,0,0,0-.32,1.77c0,.27,0,.56-.05.84V20a.49.49,0,0,1-.19.38,2.53,2.53,0,0,1-.93.44l-.14,0,.23,0,.75.13a.6.6,0,0,1,.25.1.48.48,0,0,1,.21.27A6.1,6.1,0,0,0,23,23.41a11.55,11.55,0,0,0,1.25,1.42l0,0a.32.32,0,0,1,.08.44h0a.33.33,0,0,1-.27.15H23.8c-.43,0-.87-.05-1.33-.05H21.36a.4.4,0,0,1-.15,0l-.27,0h-.27a.41.41,0,0,1-.32-.14,6.14,6.14,0,0,1-.72-.83l-.88.21a6.5,6.5,0,0,0,.23.67.32.32,0,0,1,0,.27.31.31,0,0,1-.21.16l-1.67.44Z"/><path class="cls-1" d="M19,6.47l0,0a1.46,1.46,0,0,0-.28-.14L18,6.06l-.63-.23a4.14,4.14,0,0,1-.82-.37l-.07,0a17.47,17.47,0,0,0-1.39-1.72.59.59,0,0,0-.23-.14l-1.62-.5-.79-.25h-.09a.3.3,0,0,0-.25.12l-.35-.11h-.1a.3.3,0,0,0-.25.12.32.32,0,0,0,0,.37l.06.09a9.33,9.33,0,0,1,.92,1.76.77.77,0,0,0,.3.36l.11.06.42.22.06,0-.42.13.2.35a.32.32,0,0,0-.23.21.62.62,0,0,0,0,.23,6.41,6.41,0,0,1,0,1.75,8.6,8.6,0,0,1-.46,1.81,15.17,15.17,0,0,1-1.12,2.34c-.52.91-1.12,1.81-1.65,2.61l0,.07a.31.31,0,0,0,0,.32.31.31,0,0,0,.27.17H10l1.61,0h.69a.41.41,0,0,0,.33-.18c.55-.8,1.13-1.66,1.65-2.56l.58,0c-.21.76-.47,1.5-.77,2.31a.33.33,0,0,0,0,.29.34.34,0,0,0,.26.14l1.89,0H17a.31.31,0,0,0,.3-.22l.06-.17c0-.13.09-.25.13-.38a13.48,13.48,0,0,0,.79-3.83,8.51,8.51,0,0,0-.1-1.83,8.36,8.36,0,0,0-.63-2.13l.36-.05.36,0,.31,0,.33,0a.41.41,0,0,0,.31-.32A.39.39,0,0,0,19,6.47Z"/><path class="cls-1" d="M16.89,16.35a.33.33,0,0,0-.23-.16h-.08l-.59,0h-.3l-1.56,0a.4.4,0,0,0-.34.23c-.1.2-.18.35-.27.5a6.18,6.18,0,0,0-.3.58l-.11,0-.48.19-.18.07c0-.26.09-.53.14-.79a2.56,2.56,0,0,1,.05-.27l0-.13a.32.32,0,0,0-.07-.25.34.34,0,0,0-.23-.13H11.1l-1.44,0a.39.39,0,0,0-.37.24L9,17.08l-.33.7a2.48,2.48,0,0,1-.65.21l-.65.13-.7.15a3,3,0,0,0-.32.09l0,0a.39.39,0,0,0-.27.35.38.38,0,0,0,.25.35,1.35,1.35,0,0,0,.24.08l.4.08.72.16.28.09a16.55,16.55,0,0,0-.52,1.62A10,10,0,0,0,7.12,24a8.51,8.51,0,0,0,.45,2.33A11.48,11.48,0,0,0,9.13,29.2c.09.12.17.24.26.35l.12.16a.35.35,0,0,0,.27.13.32.32,0,0,0,.24-.11h0l.12-.09.06.08a.33.33,0,0,0,.26.13h0a.32.32,0,0,0,.24-.11h0l1.26-1,.07-.06a.33.33,0,0,0,.06-.45l0,0a11.68,11.68,0,0,1-1.28-2,6.73,6.73,0,0,1-.44-1.2,10.71,10.71,0,0,0,1.51,1.82l.57.52.26.25a.35.35,0,0,0,.22.08.28.28,0,0,0,.15,0l.23-.12.09.08a.35.35,0,0,0,.22.08.28.28,0,0,0,.15,0,17.82,17.82,0,0,1,2.26-1,.34.34,0,0,0,.2-.36.21.21,0,0,0,0-.11L16.12,26a7.21,7.21,0,0,1-1-2.95,6.05,6.05,0,0,1,.06-1.6,1.3,1.3,0,0,0-.1-.85.26.26,0,0,1,0-.19.51.51,0,0,1,.22-.29.76.76,0,0,0,.34-.49s0,0,0,0,0,0,0-.05a.43.43,0,0,0-.21-.57,1.06,1.06,0,0,0-.34-.15l-.48-.13.38-.08a3.73,3.73,0,0,0,.94-.28.59.59,0,0,0,.31-.31c.15-.31.29-.63.44-.94l.2-.43A.31.31,0,0,0,16.89,16.35Z"/><path class="cls-2" d="M4.7,1.06c.17,0,.34.07.5.12a8.07,8.07,0,0,1,1.88.88,11.16,11.16,0,0,1,2.1,1.57,5.42,5.42,0,0,1,.85,1,.84.84,0,0,0,.18.15,5.6,5.6,0,0,0,1,.45l1.18.45a1.55,1.55,0,0,1,.22.12s0,.08,0,.1l-.21,0c-.21,0-.43,0-.64,0s-.53,0-.79.09a.36.36,0,0,0-.18.08.17.17,0,0,0,0,.1c0,.16.07.32.1.49l-.35-.07-1.34-.3A.09.09,0,0,1,9,6.28c0-.11,0-.22-.07-.34s0-.13.08-.16a1.32,1.32,0,0,1,.33-.08l1.07-.06.38,0,.05,0a.08.08,0,0,0,0-.07c-.13-.07-.26-.14-.4-.2L9,4.73l-.34-.16a1.51,1.51,0,0,1-.47-.37A2.94,2.94,0,0,0,7,3.29a.78.78,0,0,0-.37-.06.24.24,0,0,0-.22.18.9.9,0,0,0,0,.4.48.48,0,0,0,.24.33,6.35,6.35,0,0,0,.91.44L8.7,5a.6.6,0,0,1,.15.09c.05,0,.05.08,0,.09a.93.93,0,0,1-.29,0l-1.07,0a2.7,2.7,0,0,0-.41.07.18.18,0,0,0-.1,0,.12.12,0,0,0-.07.14,9.83,9.83,0,0,1,.17,2.17,10,10,0,0,1-.23,1.81A19.33,19.33,0,0,1,6,12.22a1.28,1.28,0,0,0-.09.7.58.58,0,0,0,.73.5,1.68,1.68,0,0,0,1.08-.63A1.83,1.83,0,0,0,8,12.35a12.61,12.61,0,0,0,.8-2.23c0-.17.08-.34.11-.51,0,0,0,0,0,0L8,9.44a7.57,7.57,0,0,0,.22-2.12l.41.08,2.22.44c.06,0,.06,0,.06.09a8.48,8.48,0,0,1-.69,3.65c-.17.41-.33.83-.53,1.23a5,5,0,0,1-1.42,1.64,5.62,5.62,0,0,1-1.67.94,3.3,3.3,0,0,1-1.36.19A1.33,1.33,0,0,1,4,14.42c0-.11,0-.23-.06-.34v-.37a.09.09,0,0,0,0-.05,4.39,4.39,0,0,1,.29-1.24A24.14,24.14,0,0,0,5,10.06,11,11,0,0,0,5.4,7.2a11.35,11.35,0,0,0-.16-2,.09.09,0,0,1,0-.11A.31.31,0,0,1,5.42,5,5,5,0,0,1,6,5h.85l.31,0s0,0,.07-.05a.22.22,0,0,0-.05-.08l-.2-.11L5.68,4.12A6.33,6.33,0,0,1,5,3.76a.44.44,0,0,1-.16-.17c-.17-.43-.34-.86-.5-1.29a2.42,2.42,0,0,1-.16-.79c0-.27.07-.38.31-.45H4.7Z"/><path class="cls-2" d="M20.66,5.76l.56.17,1.15.36a.18.18,0,0,1,.09.06,1.18,1.18,0,0,1,.18.21,1,1,0,0,0,.37.3,9.51,9.51,0,0,0,1.15.46l1.06.39.2.11c.06,0,0,.08,0,.1l-.24,0L24.5,8c-.21,0-.41.05-.62.09a.25.25,0,0,0-.14.06c-.07,0-.08.07,0,.15A6,6,0,0,1,24,9.48,6.18,6.18,0,0,1,23.14,14a3.37,3.37,0,0,1-1.79,1.36,4.43,4.43,0,0,1-1.84.23,1.7,1.7,0,0,1-1-.35A1.44,1.44,0,0,1,18,14a2.68,2.68,0,0,1,.26-1.08,8.91,8.91,0,0,0,.65-2,6.19,6.19,0,0,0-.26-3.3l-.06-.16c0-.09,0-.14.07-.18A2,2,0,0,1,19,7.19l.95-.07.37-.06s.05,0,.08,0,0-.06-.06-.07a3.3,3.3,0,0,0-.43-.19l-1.4-.52A6.11,6.11,0,0,1,17.91,6a.73.73,0,0,1-.22-.21L16.9,4.64a.16.16,0,0,1,0-.06l.51.16,1.15.36a.26.26,0,0,1,.11.07l.65.89a.78.78,0,0,0,.33.24,8.53,8.53,0,0,0,1.18.47l1,.39a.26.26,0,0,1,.11.07c.06,0,.05.08,0,.09l-.27.06-.7,0-.6.09a.31.31,0,0,0-.1,0c-.08,0-.09.08-.05.16a6.43,6.43,0,0,1,.42,1.56,6.13,6.13,0,0,1,0,1.42A8.21,8.21,0,0,1,20,13a1.26,1.26,0,0,0-.1.33.6.6,0,0,0,.53.68,1.3,1.3,0,0,0,.65,0,1.55,1.55,0,0,0,.23-.06,1.27,1.27,0,0,0,.62-.5,2.87,2.87,0,0,0,.48-1.05c.1-.37.19-.74.26-1.12a4.5,4.5,0,0,0,0-1.16A6.32,6.32,0,0,0,22.16,8c0-.07,0-.13.08-.16a1.68,1.68,0,0,1,.32-.09l.9-.07.37,0,.09-.06-.06-.07-.5-.22-1.47-.53-.27-.12a1.27,1.27,0,0,1-.56-.44A5.56,5.56,0,0,0,20.66,5.76Z"/><path class="cls-2" d="M23.27,25.07A13.65,13.65,0,0,1,22,23.61a6.54,6.54,0,0,1-1.1-2.17.14.14,0,0,0-.07-.08.35.35,0,0,0-.14-.06c-.24,0-.49-.09-.74-.12l-1-.15a1.35,1.35,0,0,1-.33-.09s0,0,0-.05a.07.07,0,0,1,0-.06l.14-.06c.36-.09.73-.18,1.09-.29a2.08,2.08,0,0,0,.81-.38.15.15,0,0,0,.07-.14c0-.38,0-.76.07-1.14A12.4,12.4,0,0,1,21.09,17c0-.17.33-.14.37-.31l-.49.09a3.62,3.62,0,0,1-2.31-.16.06.06,0,0,0-.09,0l-.45.68a22.42,22.42,0,0,0-1.44,2.47.25.25,0,0,1-.16.14l-.2,0-1,.16a.76.76,0,0,0-.3.1.22.22,0,0,0,0,.39.56.56,0,0,0,.17.09l.46.16a.9.9,0,0,1,.36.19.14.14,0,0,1,.05.19.83.83,0,0,0,0,.15A6.62,6.62,0,0,0,15.81,24a7.27,7.27,0,0,0,.47,1.89s0,0,0,0l1.7-.44a6.18,6.18,0,0,1-.33-1l0,0L19.58,24a.09.09,0,0,1,.11.05,7.09,7.09,0,0,0,.86,1,.12.12,0,0,0,.12,0H21a18,18,0,0,1,2.2-.06l.29,0,0,0S23.29,25.09,23.27,25.07Zm-5.78-2.22,0-.46c0-.25,0-.4,0-.65a.21.21,0,0,0-.05-.13,1.69,1.69,0,0,0-.25-.2,4.94,4.94,0,0,0-1.3-.78l-.19-.09s-.06,0-.05-.06,0-.05.06-.06a1.4,1.4,0,0,1,.24-.06,7.28,7.28,0,0,1,1.32-.12,1.19,1.19,0,0,0,.56,0,.4.4,0,0,0,.25-.21c.11-.21.79-1.37.79-1.38l0,1.72s-.84.59-1.23.44c0,0-.54-.11-.44,0a2.91,2.91,0,0,0,1.26.53.81.81,0,0,1,.18.23.08.08,0,0,1,.05.07c.09.31.17.62.25.94Z"/><path class="cls-2" d="M18.14,6.76a1.83,1.83,0,0,0-.28-.14l-1.34-.49a4.53,4.53,0,0,1-.87-.39.54.54,0,0,1-.16-.14,17,17,0,0,0-1.37-1.68A.18.18,0,0,0,14,3.86l-1.85-.57-.56-.18.06.1a9.29,9.29,0,0,1,1,1.82.36.36,0,0,0,.15.19c.17.09.33.19.5.26L14.51,6l.5.23s.05,0,.07.08h0l.09,0c0,.07-.1.1-.17.12a4.34,4.34,0,0,1-1.19.18,5.63,5.63,0,0,0-.58,0h-.13a.17.17,0,0,0,0,.1,7,7,0,0,1,0,1.83,8.63,8.63,0,0,1-.47,1.88,15.82,15.82,0,0,1-1.15,2.38c-.51.9-1.08,1.77-1.65,2.63a.16.16,0,0,0,0,.07l1.82,0a.09.09,0,0,0,.07-.05c.61-.89,1.22-1.78,1.75-2.72a.07.07,0,0,1,.08-.05l1.38.12.38,0a25.2,25.2,0,0,1-.88,2.71l1.89,0c.06-.19.13-.37.19-.55a13.61,13.61,0,0,0,.77-3.74,8.51,8.51,0,0,0-.8-4,.1.1,0,0,1,0-.15.29.29,0,0,1,.13,0A4.89,4.89,0,0,1,17.15,7l.67,0,.3,0s.06,0,.06,0A.08.08,0,0,0,18.14,6.76Zm-2.4,3.07c0,.4-.08.81-.12,1.21a0,0,0,0,1,0,0l-1.26-.16a1.21,1.21,0,0,0,.05-.14,12.23,12.23,0,0,0,.54-1.54A4.76,4.76,0,0,0,15,7.28h0a.35.35,0,0,1,.22-.08,6.2,6.2,0,0,1,.41,1.33A5.14,5.14,0,0,1,15.74,9.83Z"/><path class="cls-2" d="M15.87,16.51l-1.75,0a.09.09,0,0,0-.07.05c-.21.43-.37.65-.57,1.08a.27.27,0,0,1-.14.14l-.14.07a10.73,10.73,0,0,1-1.5.53c-.24,0-.61.24-.84.3,0,0-.13,0-.13.08s.08.07.13.08l.6.14c.31.07.76,0,1.07.11a1.05,1.05,0,0,1,.26.13.12.12,0,0,1,0,.14c-.12.37-.25.74-.36,1.11a10.91,10.91,0,0,0-.4,2.67c0,.42,0,.83,0,1.25v.08l0,0c-.15-.44-.31-.86-.44-1.3a9.49,9.49,0,0,1-.41-2.53c0-.41-.07-.5-.06-.91,0-.07,0-.12-.08-.14a1.51,1.51,0,0,0-.29-.13c-.46-.1-.92-.43-1.38-.53a2.12,2.12,0,0,1-.36-.1.09.09,0,0,1,0,0H9a.21.21,0,0,1,0-.15s0,0,0,0v0l0,0H9s0,0,0,0a.44.44,0,0,1,.2-.11,4.76,4.76,0,0,1,.62-.11,8.34,8.34,0,0,0,1.57-.37s0,0,0-.05l.15-.88c0-.13,0-.27.08-.4h0l-2,0c-.05,0-.08,0-.1.07-.2.41-.4.83-.59,1.24a.27.27,0,0,1-.14.14,3.1,3.1,0,0,1-.73.23l-1.34.28a1.7,1.7,0,0,0-.32.1.06.06,0,0,0,0,0s0,.05,0,.06a1.06,1.06,0,0,0,.19.06c.37.08.75.15,1.12.24a2.88,2.88,0,0,1,.49.18c.1,0,.11.09.07.2a15.67,15.67,0,0,0-.56,1.72A9.4,9.4,0,0,0,7.41,24a8.09,8.09,0,0,0,.44,2.24A11.18,11.18,0,0,0,9.37,29l.37.5h0l0,0,1.28-1,.07-.06,0,0A11.76,11.76,0,0,1,9.8,26.31a6.84,6.84,0,0,1-.69-2.91,7.9,7.9,0,0,1,.32-2.16l0,0c0,.2,0,.4.06.59a6.9,6.9,0,0,0,.87,2.65,9.67,9.67,0,0,0,1.69,2.13l.82.76a18.48,18.48,0,0,1,2.31-1.06v0l-.06-.1a7.55,7.55,0,0,1-1-3.08,6.72,6.72,0,0,1,.06-1.68.91.91,0,0,0-.07-.65.64.64,0,0,1,0-.41.81.81,0,0,1,.34-.47.45.45,0,0,0,.22-.3.78.78,0,0,1,.05-.14c0-.1,0-.13-.07-.19a1.11,1.11,0,0,0-.27-.12l-1.09-.28a2,2,0,0,1-.35-.11c-.06,0-.06-.07,0-.11a.85.85,0,0,1,.17-.06l1.17-.25a4.64,4.64,0,0,0,.9-.26.33.33,0,0,0,.15-.16l.6-1.3,0-.07Z"/><path class="cls-3" d="M5.4,1.06c.16,0,.33.07.49.12a8.33,8.33,0,0,1,1.89.88,11.85,11.85,0,0,1,2.1,1.57,6.32,6.32,0,0,1,.85,1,.54.54,0,0,0,.18.15,5.18,5.18,0,0,0,.95.45L13,5.68a1.55,1.55,0,0,1,.22.12c.06,0,.05.08,0,.1l-.2,0c-.22,0-.44,0-.65,0l-.78.09a.36.36,0,0,0-.19.08.12.12,0,0,0,0,.1c0,.16.06.32.1.49l-.36-.07-1.33-.3a.09.09,0,0,1-.08-.08l-.06-.34c0-.09,0-.13.08-.16a1.14,1.14,0,0,1,.33-.08c.35,0,.7,0,1.06-.06l.38,0,.05,0a.06.06,0,0,0,0-.07l-.41-.2L9.72,4.73l-.34-.16a1.37,1.37,0,0,1-.46-.37,3,3,0,0,0-1.19-.91.78.78,0,0,0-.37-.06.24.24,0,0,0-.22.18.9.9,0,0,0,0,.4.44.44,0,0,0,.23.33,6.35,6.35,0,0,0,.91.44L9.4,5a.42.42,0,0,1,.14.09c.05,0,.05.08,0,.09a.93.93,0,0,1-.29,0l-1.07,0a2.93,2.93,0,0,0-.41.07.18.18,0,0,0-.09,0,.1.1,0,0,0-.07.14,9.83,9.83,0,0,1,.16,2.17,10,10,0,0,1-.23,1.81,18.06,18.06,0,0,1-.8,2.69,1.37,1.37,0,0,0-.09.7.58.58,0,0,0,.73.5,1.68,1.68,0,0,0,1.08-.63,1.6,1.6,0,0,0,.29-.44,12.58,12.58,0,0,0,.79-2.23l.12-.51v0L8.7,9.44a8.4,8.4,0,0,0,.22-2.12l.41.08,2.21.44c.06,0,.07,0,.07.09a8.64,8.64,0,0,1-.7,3.65c-.17.41-.33.83-.53,1.23A4.84,4.84,0,0,1,9,14.45a5.88,5.88,0,0,1-1.67.94,3.33,3.33,0,0,1-1.36.19,1.33,1.33,0,0,1-1.3-1.16l-.06-.34v-.37l0-.05a4.38,4.38,0,0,1,.28-1.24,24.2,24.2,0,0,0,.79-2.36A11.91,11.91,0,0,0,6.1,7.2a11.37,11.37,0,0,0-.17-2A.09.09,0,0,1,6,5.08.31.31,0,0,1,6.11,5,5,5,0,0,1,6.65,5H7.5l.31,0,.08-.05a.24.24,0,0,0-.06-.08,1.18,1.18,0,0,0-.19-.11c-.42-.18-.85-.35-1.27-.54a6.19,6.19,0,0,1-.67-.36.4.4,0,0,1-.17-.17c-.17-.43-.34-.86-.5-1.29a2.42,2.42,0,0,1-.16-.79.37.37,0,0,1,.32-.45H5.4Z"/><path class="cls-3" d="M21.36,5.76l.56.17,1.14.36a.15.15,0,0,1,.09.06,1.9,1.9,0,0,1,.19.21.84.84,0,0,0,.37.3,8.76,8.76,0,0,0,1.14.46l1.06.39.2.11c.06,0,.06.08,0,.1l-.24,0-.66,0a6,6,0,0,0-.61.09.32.32,0,0,0-.15.06c-.06,0-.07.07-.05.15a4.89,4.89,0,0,1,.34,1.17,6.11,6.11,0,0,1,0,2A6.18,6.18,0,0,1,23.83,14,3.34,3.34,0,0,1,22,15.32a4.38,4.38,0,0,1-1.83.23,1.65,1.65,0,0,1-1-.35,1.42,1.42,0,0,1-.55-1.2A2.69,2.69,0,0,1,19,12.92a9.41,9.41,0,0,0,.64-2,6.09,6.09,0,0,0-.26-3.3l-.06-.16a.12.12,0,0,1,.08-.18,1.77,1.77,0,0,1,.33-.08l.94-.07L21,7.06s.05,0,.08,0S21,7,21,6.94s-.29-.14-.43-.19l-1.41-.52A6.11,6.11,0,0,1,18.6,6a.73.73,0,0,1-.22-.21L17.6,4.64a.09.09,0,0,1,0-.06l.51.16,1.15.36a.26.26,0,0,1,.11.07c.22.3.44.59.65.89a.81.81,0,0,0,.34.24,7.94,7.94,0,0,0,1.17.47l1,.39a.34.34,0,0,1,.11.07c.05,0,0,.08,0,.09l-.27.06-.7,0-.6.09-.1,0c-.07,0-.08.08-.05.16a6,6,0,0,1,.42,1.56,5.62,5.62,0,0,1,0,1.42A7.89,7.89,0,0,1,20.66,13a1.8,1.8,0,0,0-.1.33.61.61,0,0,0,.54.68,1.26,1.26,0,0,0,.64,0,1.55,1.55,0,0,0,.23-.06,1.35,1.35,0,0,0,.63-.5,2.85,2.85,0,0,0,.47-1.05c.1-.37.19-.74.26-1.12a4.5,4.5,0,0,0,0-1.16A6.07,6.07,0,0,0,22.85,8c0-.07,0-.13.08-.16a1.92,1.92,0,0,1,.32-.09l.9-.07.38,0s0,0,.08-.06l-.06-.07-.5-.22-1.47-.53-.27-.12a1.33,1.33,0,0,1-.56-.44A5.39,5.39,0,0,0,21.36,5.76Z"/><path class="cls-3" d="M24,25.07a13.74,13.74,0,0,1-1.29-1.46,6.54,6.54,0,0,1-1.1-2.17.11.11,0,0,0-.07-.08.38.38,0,0,0-.13-.06l-.75-.12-1-.15a1.31,1.31,0,0,1-.34-.09s-.05,0-.05-.05,0-.05.05-.06l.14-.06c.37-.09.73-.18,1.09-.29a2.12,2.12,0,0,0,.82-.38.21.21,0,0,0,.07-.14c0-.38,0-.76.06-1.14A13.87,13.87,0,0,1,21.78,17l.12-.5h0a4.11,4.11,0,0,1-2.5.12s-.06,0-.09,0c-.14.23-.3.45-.45.68a22.42,22.42,0,0,0-1.44,2.47.23.23,0,0,1-.16.14L17,20l-1,.16a.82.82,0,0,0-.3.1.22.22,0,0,0,0,.39.56.56,0,0,0,.17.09l.46.16a.84.84,0,0,1,.36.19.14.14,0,0,1,.05.19.83.83,0,0,0,0,.15A6.82,6.82,0,0,0,16.5,24,7.7,7.7,0,0,0,17,25.89h0l1.69-.44a6.18,6.18,0,0,1-.33-1l0,0L20.27,24a.1.1,0,0,1,.12.05,7,7,0,0,0,.85,1,.13.13,0,0,0,.12,0h.29a19.28,19.28,0,0,1,2.15,0l.22,0,0,0Zm-5.78-2.22c0-.16,0-.31,0-.46s0-.4,0-.65a.16.16,0,0,0,0-.13l-.25-.2a5,5,0,0,0-1.31-.78l-.19-.09s-.05,0-.05-.06,0-.05.06-.06l.24-.06a6.22,6.22,0,0,1,1.22,0,1.77,1.77,0,0,0,.66-.16A.4.4,0,0,0,18.8,20c.11-.21.79-1.37.8-1.38l-.05,1.72s-.85.59-1.24.44c0,0-.54-.11-.44,0a2.91,2.91,0,0,0,1.26.53.88.88,0,0,1,.19.23.13.13,0,0,1,.05.07l.24.94Z"/><path class="cls-3" d="M18.83,6.76a1.47,1.47,0,0,0-.28-.14l-1.34-.49a5.16,5.16,0,0,1-.87-.39.54.54,0,0,1-.16-.14,17,17,0,0,0-1.37-1.68.18.18,0,0,0-.09-.06l-1.85-.57-.56-.18a.64.64,0,0,1,.06.1,9.29,9.29,0,0,1,1,1.82.33.33,0,0,0,.16.19,4.59,4.59,0,0,0,.49.26L15.2,6l.51.23s0,0,.06.08h0l.08,0c0,.07-.09.1-.16.12a4.4,4.4,0,0,1-1.19.18,5.83,5.83,0,0,0-.59,0h-.13a.17.17,0,0,0,0,.1,6.6,6.6,0,0,1,0,1.83,8.63,8.63,0,0,1-.47,1.88,15.77,15.77,0,0,1-1.14,2.38c-.52.9-1.09,1.77-1.66,2.63a.43.43,0,0,0,0,.07l1.83,0s0,0,.06-.05c.62-.89,1.22-1.78,1.75-2.72,0,0,0-.05.09-.05l1.37.12.38,0a23.11,23.11,0,0,1-.87,2.71l1.88,0c.07-.19.13-.37.19-.55a13.61,13.61,0,0,0,.77-3.74,8.76,8.76,0,0,0-.09-1.77,8.85,8.85,0,0,0-.7-2.26.1.1,0,0,1,0-.15.29.29,0,0,1,.13,0A5.07,5.07,0,0,1,17.85,7l.67,0,.29,0s.06,0,.06,0S18.85,6.77,18.83,6.76Zm-2.4,3.07c0,.4-.08.81-.12,1.21v0L15,10.91l.06-.14a14,14,0,0,0,.53-1.54,4.76,4.76,0,0,0,.1-1.95h0A.4.4,0,0,1,16,7.2a6.2,6.2,0,0,1,.41,1.33A5.14,5.14,0,0,1,16.43,9.83Z"/><path class="cls-3" d="M16.56,16.51l-1.75,0a.12.12,0,0,0-.07.05c-.2.43-.37.65-.57,1.08a.24.24,0,0,1-.14.14.61.61,0,0,1-.14.07,10.29,10.29,0,0,1-1.5.53c-.24,0-.6.24-.84.3,0,0-.12,0-.12.08s.08.07.12.08l.6.14c.31.07.76,0,1.07.11a.91.91,0,0,1,.26.13s0,.08,0,.14c-.12.37-.25.74-.35,1.11a10.46,10.46,0,0,0-.41,2.67c0,.42,0,.83,0,1.25v.08l0,0c-.15-.44-.31-.86-.44-1.3a9.49,9.49,0,0,1-.41-2.53c0-.41-.07-.5-.06-.91a.12.12,0,0,0-.07-.14,1.94,1.94,0,0,0-.3-.13c-.46-.1-.92-.43-1.38-.53a2.42,2.42,0,0,1-.36-.1.09.09,0,0,1-.05,0h0a.21.21,0,0,1,0-.15s0,0,0,0v0l0,0h0l0,0a.36.36,0,0,1,.2-.11,4.23,4.23,0,0,1,.62-.11,8.53,8.53,0,0,0,1.57-.37.43.43,0,0,0,0-.05c.05-.29.1-.58.16-.88,0-.13.05-.27.07-.4h0l-2,0c-.05,0-.08,0-.1.07-.19.41-.39.83-.59,1.24a.24.24,0,0,1-.14.14,3,3,0,0,1-.72.23l-1.35.28a2,2,0,0,0-.32.1.06.06,0,0,0,0,0s0,.05,0,.06l.19.06c.37.08.75.15,1.12.24a2.88,2.88,0,0,1,.49.18c.11,0,.11.09.07.2-.21.57-.41,1.14-.56,1.72A9.39,9.39,0,0,0,8.11,24a7.73,7.73,0,0,0,.43,2.24A11.18,11.18,0,0,0,10.06,29c.12.17.25.33.38.5h0l0,0,1.28-1,.08-.06,0,0a11.21,11.21,0,0,1-1.31-2.08,6.85,6.85,0,0,1-.7-2.91,7.9,7.9,0,0,1,.32-2.16s0,0,0,0l.06.59a7.08,7.08,0,0,0,.87,2.65,9.71,9.71,0,0,0,1.7,2.13c.26.26.54.51.82.76a18.35,18.35,0,0,1,2.3-1.06v0s0-.07-.05-.1a7.4,7.4,0,0,1-1-3.08,6.73,6.73,0,0,1,0-1.68,1,1,0,0,0-.06-.65.58.58,0,0,1,0-.41.85.85,0,0,1,.34-.47.45.45,0,0,0,.22-.3.78.78,0,0,1,0-.14c0-.1,0-.13-.07-.19a1.23,1.23,0,0,0-.26-.12l-1.1-.28a1.93,1.93,0,0,1-.34-.11c-.07,0-.07-.07,0-.11a.76.76,0,0,1,.16-.06l1.18-.25a4.76,4.76,0,0,0,.89-.26.33.33,0,0,0,.15-.16c.2-.44.4-.87.61-1.3l0-.07Z"/></svg>